<svg width="24" height="25" viewBox="0 0 24 25" fill="none" xmlns="http://www.w3.org/2000/svg">
<path opacity="0.4" d="M9.58174 6.20265C10.0578 6.11471 10.495 6.4185 10.5856 6.88318C10.6762 7.34786 10.3715 7.80155 9.90839 7.89249C8.51413 8.1643 7.43756 9.24356 7.16468 10.6426V10.6436C7.087 11.0463 6.73246 11.3391 6.32414 11.3391C6.26937 11.3391 6.21459 11.3341 6.15882 11.3241C5.69573 11.2312 5.39098 10.7785 5.48161 10.3128C5.88893 8.22326 7.49731 6.60937 9.58174 6.20265Z" fill="#033097"/>
<path opacity="0.4" d="M9.64415 2.72082C9.86723 2.68884 10.0913 2.7548 10.2696 2.8967C10.4528 3.0406 10.5674 3.24846 10.5922 3.4813C10.645 3.95197 10.3054 4.37768 9.83536 4.43065C6.5937 4.7924 4.07407 7.31766 3.70957 10.5694C3.66077 11.0051 3.29528 11.3339 2.85907 11.3339C2.82621 11.3339 2.79434 11.3319 2.76147 11.3279C2.53341 11.3029 2.33025 11.19 2.18684 11.0101C2.04443 10.8303 1.97969 10.6064 2.00559 10.3776C2.45972 6.32035 5.59979 3.17151 9.64415 2.72082Z" fill="#033097"/>
<path fill-rule="evenodd" clip-rule="evenodd" d="M12.9683 13.6853C8.97918 17.6733 8.07423 13.0596 5.53435 15.5977C3.08573 18.0456 1.67838 18.5361 4.78076 21.6376C5.16937 21.9499 7.63839 25.7071 16.3154 17.0326C24.9935 8.35689 21.2384 5.88533 20.926 5.49684C17.8161 2.38674 17.3341 3.80227 14.8855 6.25022C12.3456 8.78939 16.9573 9.6973 12.9683 13.6853Z" fill="#033097"/>
</svg>
