<svg width="24" height="25" viewBox="0 0 24 25" fill="none" xmlns="http://www.w3.org/2000/svg">
<path opacity="0.4" d="M12.02 2.71289C6.21 2.71289 2 7.45289 2 12.7129C2 14.3929 2.49 16.1229 3.35 17.7029C3.51 17.9629 3.53 18.2929 3.42 18.6029L2.75 20.8429C2.6 21.3829 3.06 21.7829 3.57 21.6229L5.59 21.0229C6.14 20.8429 6.57 21.0729 7.081 21.3829C8.541 22.2429 10.36 22.6829 12 22.6829C16.96 22.6829 22 18.8529 22 12.6829C22 7.36289 17.7 2.71289 12.02 2.71289Z" fill="#033097"/>
<path fill-rule="evenodd" clip-rule="evenodd" d="M15.3105 12.7224C15.3105 13.4224 15.8805 14.0024 16.5905 14.0024C17.3005 14.0024 17.8705 13.4224 17.8705 12.7224C17.8705 12.0124 17.3005 11.4424 16.5905 11.4424C15.8805 11.4424 15.3105 12.0124 15.3105 12.7224ZM11.9812 14.0025C11.2712 13.9925 10.7012 13.4225 10.7012 12.7125C10.7012 12.0125 11.2812 11.4325 11.9812 11.4425C12.6912 11.4425 13.2612 12.0125 13.2612 12.7225C13.2612 13.4225 12.6912 14.0025 11.9812 14.0025ZM7.36984 14.0025C6.66984 14.0025 6.08984 13.4225 6.08984 12.7225C6.08984 12.0125 6.65984 11.4425 7.36984 11.4425C8.07984 11.4425 8.64984 12.0125 8.64984 12.7225C8.64984 13.4225 8.07984 13.9925 7.36984 14.0025Z" fill="#033097"/>
</svg>
