<svg width="24" height="25" viewBox="0 0 24 25" fill="none" xmlns="http://www.w3.org/2000/svg">
<path opacity="0.4" d="M22 16.6539C22 19.4439 19.76 21.7039 16.97 21.7139H16.96H7.05C4.27 21.7139 2 19.4639 2 16.6739V16.6639C2 16.6639 2.006 12.2379 2.014 10.0119C2.015 9.59387 2.495 9.35987 2.822 9.61987C5.198 11.5049 9.447 14.9419 9.5 14.9869C10.21 15.5559 11.11 15.8769 12.03 15.8769C12.95 15.8769 13.85 15.5559 14.56 14.9759C14.613 14.9409 18.767 11.6069 21.179 9.69087C21.507 9.42987 21.989 9.66387 21.99 10.0809C22 12.2899 22 16.6539 22 16.6539Z" fill="#033097"/>
<path d="M21.4769 6.38689C20.6109 4.75489 18.9069 3.71289 17.0309 3.71289H7.05086C5.17486 3.71289 3.47086 4.75489 2.60486 6.38689C2.41086 6.75189 2.50286 7.20689 2.82586 7.46489L10.2509 13.4039C10.7709 13.8239 11.4009 14.0329 12.0309 14.0329C12.0349 14.0329 12.0379 14.0329 12.0409 14.0329C12.0439 14.0329 12.0479 14.0329 12.0509 14.0329C12.6809 14.0329 13.3109 13.8239 13.8309 13.4039L21.2559 7.46489C21.5789 7.20689 21.6709 6.75189 21.4769 6.38689Z" fill="#033097"/>
</svg>
