<svg width="24" height="25" viewBox="0 0 24 25" fill="none" xmlns="http://www.w3.org/2000/svg">
<path opacity="0.4" d="M2 11.791C2.05 14.129 2.19 18.128 2.21 18.569C2.281 19.512 2.642 20.465 3.204 21.137C3.986 22.08 4.949 22.501 6.292 22.501C8.148 22.511 10.194 22.511 12.181 22.511C14.176 22.511 16.112 22.511 17.747 22.501C19.071 22.501 20.064 22.069 20.836 21.137C21.398 20.465 21.759 19.502 21.81 18.569C21.83 18.198 21.93 13.857 21.99 11.791H2Z" fill="#033097"/>
<path d="M11.2461 16.0967V17.3907C11.2461 17.8047 11.5821 18.1407 11.9961 18.1407C12.4101 18.1407 12.7461 17.8047 12.7461 17.3907V16.0967C12.7461 15.6827 12.4101 15.3467 11.9961 15.3467C11.5821 15.3467 11.2461 15.6827 11.2461 16.0967Z" fill="#033097"/>
<path fill-rule="evenodd" clip-rule="evenodd" d="M10.211 15.2689C10.111 15.6319 9.762 15.8639 9.384 15.8139C6.833 15.4579 4.395 14.5529 2.337 13.1939C2.126 13.0559 2 12.8199 2 12.5679V9.10189C2 7.00189 3.712 5.29389 5.817 5.29389H7.784C7.972 3.84189 9.202 2.71289 10.704 2.71289H13.286C14.787 2.71289 16.018 3.84189 16.206 5.29389H18.183C20.282 5.29389 21.99 7.00189 21.99 9.10189V12.5679C21.99 12.8199 21.863 13.0549 21.654 13.1939C19.592 14.5589 17.144 15.4679 14.576 15.8229C14.541 15.8279 14.507 15.8299 14.473 15.8299C14.134 15.8299 13.831 15.6009 13.746 15.2649C13.544 14.4689 12.821 13.9119 11.99 13.9119C11.148 13.9119 10.433 14.4569 10.211 15.2689ZM13.286 4.21289H10.704C10.031 4.21289 9.469 4.67289 9.301 5.29389H14.688C14.52 4.67289 13.958 4.21289 13.286 4.21289Z" fill="#033097"/>
</svg>
